<svg width="70" height="68" viewBox="0 0 70 68" fill="none" xmlns="http://www.w3.org/2000/svg">
<path d="M69.2396 9.63014C69.1591 9.14867 68.7696 8.77028 68.2739 8.69211C67.9521 8.64227 60.2808 7.46067 50.508 8.19024C48.9709 8.30467 47.4723 8.4644 46.0088 8.66266C29.1828 -3.37085 2.86966 0.586321 1.74894 0.761918C1.2533 0.840087 0.863789 1.21847 0.783321 1.69995C0.602559 2.78865 -3.47216 28.3477 8.91644 44.6952C8.71352 46.117 8.54908 47.5727 8.43013 49.0659C7.68026 58.5583 8.89544 66.0116 8.94676 66.3242C9.02723 66.8057 9.41557 67.1841 9.91237 67.2623C10.1584 67.3008 14.7101 68.0009 21.2152 68.0009C23.2083 68.0009 25.3867 67.9352 27.6783 67.7641C40.7119 66.7933 51.168 62.8146 57.9145 56.2608C64.6622 49.7071 68.7568 39.5508 69.7562 26.8885C70.5061 17.3961 69.2909 9.94282 69.2396 9.63014ZM49.0059 10.6248C56.1023 9.93942 62.3438 10.3348 65.5707 10.6543L49.0059 26.7458V10.6248ZM36.1776 6.0389C38.4319 6.89423 40.6244 7.92855 42.6839 9.18945C42.5335 9.21664 42.3947 9.25402 42.2454 9.28235C41.4524 9.43529 40.671 9.60069 39.9037 9.77968C39.3905 9.8975 38.8867 10.0244 38.3864 10.1547C37.8267 10.3008 37.2704 10.4515 36.7246 10.6124C36.545 10.6645 36.3549 10.7086 36.1776 10.763V6.0389ZM36.1776 13.1613C36.2896 13.1262 36.4016 13.0934 36.5135 13.0583C36.8937 12.9393 37.275 12.8203 37.6646 12.7082C38.4844 12.4737 39.3089 12.2641 40.1322 12.0692C40.4576 11.9922 40.7807 11.9129 41.1107 11.8415C41.9679 11.6546 42.8227 11.4915 43.6752 11.3431C44.0099 11.2842 44.3446 11.2264 44.6839 11.172C45.351 11.0666 46.0134 10.9726 46.6735 10.8876V29.0104L36.1776 39.2064V13.1613ZM23.3482 2.94499C26.7885 3.38795 30.3641 4.10619 33.8441 5.21982V11.5515C33.0196 11.8483 32.2172 12.1644 31.4324 12.4975C31.2901 12.5575 31.1466 12.6176 31.0055 12.6787C29.388 13.3845 27.8614 14.1662 26.427 15.0261C26.0981 15.2221 25.7751 15.4237 25.4556 15.6288C25.1244 15.8418 24.7885 16.0491 24.4678 16.2711C24.0841 16.5351 23.7156 16.8092 23.3482 17.0857V2.94499ZM23.3482 20.0414H23.3494C23.5232 19.8929 23.6853 19.7343 23.8637 19.5893C24.0235 19.4591 24.1832 19.3276 24.3453 19.2008C24.9809 18.7034 25.6433 18.2276 26.3302 17.7711C26.553 17.6238 26.7804 17.4844 27.0066 17.3428C27.5524 16.9984 28.1157 16.6688 28.6918 16.3493C29.0895 16.1295 29.4906 15.9188 29.8965 15.7137C30.3758 15.4702 30.8656 15.2368 31.3647 15.0091C31.9175 14.7587 32.4761 14.5197 33.0382 14.2931C33.303 14.1866 33.5747 14.0846 33.8441 13.9816V41.4721L23.3482 51.6681V20.0414ZM21.017 2.68442V18.8156L4.44987 2.72181C7.67676 2.40007 13.923 2.00129 21.017 2.68442ZM2.80202 4.32484L19.368 20.4175H2.76704C2.06381 13.5273 2.47315 7.46067 2.80202 4.32484ZM3.03526 22.6832H17.586C17.3026 23.0401 17.0192 23.3981 16.7475 23.7708C16.5201 24.0824 16.3055 24.4086 16.0863 24.7304C15.8763 25.0408 15.6688 25.3546 15.4658 25.6741C14.5807 27.0664 13.776 28.5505 13.0495 30.1218C12.9865 30.2588 12.9247 30.3982 12.8629 30.5364C12.5212 31.2988 12.1946 32.0783 11.8891 32.8803H5.37584C4.22946 29.4987 3.49008 26.0253 3.03526 22.6832ZM10.0663 38.7645C9.88205 39.51 9.71179 40.269 9.55435 41.0394C9.52519 41.1844 9.48671 41.3192 9.45872 41.4653C8.1619 39.4647 7.09832 37.3348 6.21784 35.145H11.0786C11.0226 35.3183 10.9771 35.5018 10.9235 35.6763C10.7579 36.2054 10.6039 36.7457 10.4523 37.2907C10.3194 37.7767 10.1888 38.2661 10.0663 38.7645ZM11.4529 43.6699C11.5672 42.9709 11.6897 42.2799 11.825 41.6036C11.9241 41.1096 12.0314 40.6145 12.1445 40.1195C12.2996 39.4363 12.464 38.7634 12.6425 38.1041C12.7661 37.6441 12.9002 37.1842 13.0378 36.7265C13.2361 36.066 13.4436 35.4146 13.6652 34.7802C13.8122 34.3588 13.9696 33.9419 14.1294 33.5238C14.3696 32.8996 14.6168 32.2833 14.8804 31.6863C15.0472 31.3056 15.2268 30.9306 15.4064 30.5545C15.6734 29.9983 15.9487 29.4522 16.2367 28.9209C16.4128 28.5946 16.5947 28.2706 16.7813 27.9489C17.1312 27.3507 17.4939 26.7684 17.8717 26.2042C18.007 26.0003 18.14 25.7953 18.2811 25.5948C18.7557 24.9196 19.2513 24.2704 19.768 23.6462C19.8951 23.4921 20.028 23.3403 20.1587 23.1885C20.4339 22.869 20.7289 22.5722 21.017 22.2675V53.935L10.9655 63.6993C10.5736 59.9789 10.0686 52.1292 11.4529 43.6699ZM12.6156 65.3001L22.666 55.5369H55.3011C42.2314 67.1286 19.8438 66.0161 12.6156 65.3001ZM57.5962 53.2711H24.9984L35.4943 43.0752H63.8039C62.3263 46.7503 60.3169 50.2509 57.5962 53.2711ZM64.6424 40.8094H37.8267L48.3225 30.6134H66.9841C66.5281 33.9554 65.7899 37.4277 64.6424 40.8094ZM67.2559 28.3477H50.6549L67.2209 12.255C67.5509 15.3886 67.9614 21.4529 67.2559 28.3477Z" fill="#A6E34F"/>
</svg>
