<svg width="67" height="67" viewBox="0 0 67 67" fill="none" xmlns="http://www.w3.org/2000/svg">
<g clip-path="url(#clip0)">
<path d="M65.9305 25.8018C65.9305 23.8416 65.2596 22.0362 64.1378 20.599V8.36329C65.7923 7.85956 66.9999 6.31956 66.9999 4.50244C66.9999 2.27737 65.1896 0.467285 62.9647 0.467285C60.7396 0.467285 58.9296 2.27737 58.9296 4.50244C58.9296 6.31956 60.1371 7.85943 61.7917 8.36329V18.5245C60.5224 17.7656 59.0398 17.328 57.4565 17.328C55.9308 17.328 54.4996 17.7353 53.2617 18.4438V8.36329C54.9162 7.85956 56.1238 6.31956 56.1238 4.50244C56.1238 2.27737 54.3135 0.467285 52.0886 0.467285C49.8635 0.467285 48.0535 2.27737 48.0535 4.50244C48.0535 6.31956 49.261 7.85943 50.9156 8.36329V20.4204C49.7084 21.885 48.9825 23.7602 48.9825 25.8018V37.6041C47.6425 34.6439 45.7492 31.9176 43.354 29.5509C38.229 24.4872 31.454 21.6985 24.2771 21.6985C18.4819 21.6985 13.0335 23.9553 8.9356 28.0531C4.83779 32.1509 2.58098 37.5994 2.58098 43.3945C2.58098 49.2907 5.49704 54.5183 9.9625 57.7119L0.496128 64.4018C0.0787987 64.6967 -0.0996428 65.2277 0.0550617 65.7149C0.209766 66.2019 0.662011 66.5329 1.17305 66.5329H49.7574C54.8886 66.5329 58.9314 65.0773 61.7733 62.2066C65.9412 57.9969 65.9328 52.3136 65.9303 52.0853V25.8018H65.9305ZM61.2757 4.50244C61.2757 3.57103 62.0335 2.81338 62.9647 2.81338C63.8961 2.81338 64.6538 3.57103 64.6538 4.50244C64.6538 5.43384 63.896 6.19149 62.9647 6.19149C62.0335 6.19163 61.2757 5.43384 61.2757 4.50244ZM50.3997 4.50244C50.3997 3.57103 51.1574 2.81338 52.0888 2.81338C53.02 2.81338 53.7778 3.57103 53.7778 4.50244C53.7778 5.43384 53.02 6.19149 52.0888 6.19149C51.1574 6.19163 50.3997 5.43384 50.3997 4.50244ZM4.92735 43.3945C4.92735 38.2259 6.94003 33.3668 10.5948 29.7119C14.2495 26.0574 19.1088 24.0446 24.2774 24.0446C37.6073 24.0446 48.5053 34.5587 48.9675 47.6579L33.3 52.3695C34.0594 50.6242 34.4807 48.6996 34.4807 46.6782C34.4807 40.2374 29.2408 34.9974 22.7999 34.9974C20.2412 34.9974 17.8356 35.9938 16.0263 37.8031C14.2171 39.6123 13.2207 42.0179 13.2207 44.5766C13.2207 48.9317 16.7637 52.4748 21.1186 52.4748C24.732 52.4746 27.6717 49.5348 27.6717 45.9217C27.6717 42.9014 25.2146 40.4444 22.1946 40.4444C20.9616 40.4444 19.8023 40.9245 18.9304 41.7966C18.0585 42.6685 17.5782 43.8279 17.5783 45.0607C17.5783 47.2263 19.3403 48.9883 21.5057 48.9883C22.1535 48.9883 22.6788 48.4631 22.6788 47.8153C22.6788 47.1675 22.1535 46.6422 21.5057 46.6422C20.6338 46.6422 19.9244 45.9327 19.9244 45.0605C19.9243 44.4543 20.1604 43.8843 20.5892 43.4554C21.0181 43.0266 21.5882 42.7905 22.1946 42.7905C23.9211 42.7905 25.3256 44.1951 25.3256 45.9217C25.3256 48.2414 23.4382 50.1285 21.1185 50.1287C18.0572 50.1287 15.5666 47.6379 15.5666 44.5766C15.5666 42.6445 16.3189 40.8282 17.6852 39.4619C19.0513 38.0959 20.8677 37.3434 22.7998 37.3434C27.947 37.3434 32.1345 41.5309 32.1345 46.6781C32.1345 53.2739 26.7686 58.64 20.1727 58.64C11.7664 58.64 4.92735 51.8009 4.92735 43.3945ZM60.0876 60.5747C57.703 62.9713 54.2274 64.1866 49.7574 64.1866H4.86567L11.9724 59.1644C12.0282 59.1251 12.0784 59.081 12.1249 59.0343C14.5379 60.2812 17.2745 60.9863 20.1727 60.9863C24.8132 60.9863 28.9452 58.7652 31.5609 55.3308C31.6137 55.3225 31.6664 55.3105 31.7188 55.2948L50.4934 49.649C50.9893 49.4999 51.3286 49.0434 51.3286 48.5256V25.8018C51.3286 22.423 54.0776 19.6741 57.4565 19.6741C60.8354 19.6741 63.5844 22.423 63.5844 25.8018L63.5845 52.0941C63.5846 52.1434 63.5692 57.0756 60.0876 60.5747Z" fill="#A6E34F"/>
</g>
<defs>
<clipPath id="clip0">
<rect width="67" height="67" fill="white"/>
</clipPath>
</defs>
</svg>
