<svg width="80" height="71" viewBox="0 0 80 71" fill="none" xmlns="http://www.w3.org/2000/svg">
<path d="M78.355 28.069C77.6841 26.041 76.8511 24.0605 75.8786 22.1812C75.8773 22.1788 75.8761 22.1763 75.8748 22.1739C75.8739 22.1722 75.8731 22.1703 75.8722 22.1685C72.4142 15.4955 67.1602 9.97835 60.6778 6.21139C60.6772 6.21107 60.6766 6.21075 60.6761 6.21028C60.6692 6.20632 60.6625 6.20205 60.6555 6.1981C53.5038 2.04685 45.4135 0.287164 37.2591 1.10681C34.3427 1.4006 31.4438 2.03103 28.6434 2.98073C23.0115 4.88913 18.0726 7.67571 13.9637 11.2638C8.66138 15.8939 4.7942 21.7672 2.46967 28.7203C0.539207 34.4947 -0.265948 40.8551 0.0765515 47.6246C0.179208 49.6419 0.386395 51.7112 0.6928 53.7755C1.09874 56.5042 2.70873 58.82 5.11014 60.1288C7.51466 61.4395 10.3148 61.5246 12.7925 60.3631L26.4138 53.9776C28.1224 58.1859 30.8713 61.844 34.436 64.6341C34.4416 64.6387 34.4473 64.6433 34.453 64.6479C34.454 64.6487 34.4549 64.6495 34.4559 64.6501C38.9865 68.1919 44.4993 70.0899 50.1583 70.0899C50.7993 70.0899 51.4425 70.0655 52.086 70.0165C54.2016 69.8565 56.3039 69.4264 58.3338 68.7381C63.1841 67.0951 67.6094 64.2641 71.1308 60.5514C75.3695 56.0872 78.2334 50.5128 79.4127 44.4308C80.4644 39.0021 80.0987 33.3446 78.355 28.069ZM72.4078 22.3834L58.1696 31.8187C56.7357 29.8018 54.8974 28.1372 52.7516 26.9127L60.5617 9.85306C65.4621 13.0152 69.517 17.3033 72.4078 22.3834ZM29.6395 5.99275C32.2182 5.1182 34.8865 4.53792 37.5699 4.26771C44.5954 3.56101 51.5708 4.93785 57.8353 8.25521L49.8908 25.6085C47.3999 24.7368 44.7799 24.471 42.1744 24.8216L40.431 12.5618C40.3076 11.6934 39.5126 11.0902 38.6548 11.216C37.7973 11.341 37.2021 12.146 37.3255 13.0143L39.1046 25.5249C39.0609 25.5393 39.0165 25.5531 38.973 25.5678C36.5779 26.3802 34.3962 27.5917 32.4666 29.1755L17.2729 12.6216C20.811 9.80528 24.9623 7.57747 29.6395 5.99275ZM11.4742 57.48C9.90153 58.2171 8.12388 58.1633 6.59748 57.3312C5.0742 56.5007 4.05295 55.0321 3.79561 53.3024C3.57873 51.8404 3.41405 50.3767 3.3042 48.9336L24.7306 46.2307C24.7768 47.8222 24.9988 49.4009 25.401 50.9511L11.4742 57.48ZM24.8817 43.0108L3.15217 45.7518C3.04733 40.6431 3.64858 35.811 4.94435 31.3435L25.5485 39.7263C25.2393 40.8018 25.0182 41.9 24.8817 43.0108ZM5.94576 28.327C7.9381 23.0253 10.9409 18.4515 14.8926 14.695L30.1856 31.3571C28.7473 32.9572 27.5493 34.7849 26.6509 36.751L5.94576 28.327ZM28.7863 51.3319C28.7823 51.3191 28.7781 51.3063 28.7735 51.2935C28.2243 49.6275 27.9207 47.9171 27.8654 46.1894L37.3037 47.1873C37.8276 48.6692 38.6394 50.0228 39.6846 51.1644L34.901 60.8758C32.107 58.2801 30.0079 55.0162 28.7863 51.3319ZM37.4109 62.8985L42.1808 53.2147C43.9708 54.3016 46.0301 54.8793 48.1108 54.8792C48.3202 54.8792 48.5299 54.8722 48.7394 54.8605L50.2038 66.9119C45.6446 66.9209 41.1923 65.5253 37.4109 62.8985ZM49.7822 51.5281C47.2574 52.0635 44.5832 51.3565 42.6269 49.6347C41.5135 48.6583 40.6746 47.3862 40.2005 45.9559C40.1366 45.7629 40.0808 45.5626 40.0346 45.3595C39.2948 42.1239 41.0862 38.8879 44.2008 37.8325C46.6885 36.9899 49.3899 38.3541 50.2225 40.8725C50.4977 41.7043 51.3871 42.1529 52.208 41.8744C53.0296 41.596 53.4727 40.6958 53.1977 39.8641C51.816 35.6855 47.3338 33.4232 43.2057 34.82C39.2396 36.1639 36.7113 39.8736 36.7313 43.9333L28.0467 43.0149C28.2271 41.7708 28.5345 40.5471 28.9707 39.362C29.9173 36.7827 31.459 34.4235 33.4293 32.5398C35.3018 30.7494 37.5021 29.4174 39.969 28.5806C40.3744 28.4433 40.7926 28.3232 41.2124 28.2234C44.1937 27.5129 47.2493 27.8107 50.0502 29.0844C52.7157 30.2943 54.8974 32.2772 56.3594 34.8176C56.8336 35.6423 57.2285 36.5268 57.533 37.446C57.9307 38.6471 58.1188 39.8923 58.0921 41.1481C58.0458 43.344 57.351 45.4582 56.0838 47.2604C54.7552 49.1446 52.9029 50.531 50.7293 51.268C50.4136 51.3742 50.0952 51.4618 49.7822 51.5281ZM57.3377 65.7254C56.0308 66.1685 54.6905 66.4886 53.3371 66.6838L51.8255 54.244C54.0377 53.4748 55.9871 52.184 57.5471 50.4651L67.6967 59.5136C64.7375 62.2876 61.1871 64.4215 57.3377 65.7254ZM69.8799 57.2271L59.4038 47.8876C60.2555 46.3751 60.8196 44.7293 61.0741 43.0181L75.9745 45.4261C74.8728 49.792 72.792 53.8217 69.8799 57.2271ZM76.5816 42.3076L61.1871 39.8197C61.0985 38.6727 60.873 37.5392 60.5077 36.4356C60.2955 35.7945 60.0457 35.1676 59.7633 34.559L73.8597 25.2174C74.435 26.4708 74.9452 27.7629 75.38 29.0772C76.7902 33.3443 77.197 37.8868 76.5816 42.3076Z" fill="#A6E34F"/>
</svg>
