<svg width="83" height="61" viewBox="0 0 83 61" fill="none" xmlns="http://www.w3.org/2000/svg">
<path d="M77.5415 28.4531C78.9991 25.2255 80.4156 22.8538 82.1622 20.6929C82.7251 19.9966 82.6168 18.9757 81.9205 18.4128C81.2244 17.8505 80.2038 17.9584 79.6404 18.6547C77.7426 21.0025 76.2133 23.5416 74.6632 26.9474C73.7703 26.6261 72.8614 26.4246 71.9474 26.3411C72.6856 22.0481 73.7186 19.0256 75.5378 15.6891C75.9666 14.9031 75.6767 13.9183 74.8906 13.4897C74.1052 13.0613 73.1198 13.3508 72.6913 14.1369C70.6058 17.9617 69.4308 21.5248 68.6266 26.5539C66.4788 27.0267 64.3826 28.1457 62.4912 29.8931C61.5721 30.742 60.5561 31.5229 59.4415 32.2378C61.1102 26.2245 60.1954 20.0692 56.7354 14.534C54.1212 10.3524 50.2229 6.79347 45.462 4.24284C40.6609 1.67081 35.3197 0.311523 30.0157 0.311523C22.0409 0.311523 14.5331 3.01648 8.87516 7.92807C3.15189 12.8957 0 19.5208 0 26.5813C0 34.044 2.53328 40.461 7.32589 45.1383C9.17004 46.9382 11.2874 48.4184 13.5914 49.5433C10.3936 51.7154 7.8127 54.4333 5.46438 58.0652C5.14195 58.5639 5.11795 59.1992 5.40181 59.7207C5.68566 60.2422 6.23181 60.5668 6.82578 60.5668H53.7999C60.2656 60.5668 66.8831 58.5957 72.4332 55.016C77.9328 51.4692 81.677 46.6978 82.7058 41.9256C83.8174 36.7683 81.7107 31.3989 77.5415 28.4531ZM3.24251 26.5813C3.24251 13.884 15.2529 3.55387 30.0157 3.55387C39.6048 3.55387 49.2376 8.65708 53.9857 16.2524C57.5318 21.9251 57.9535 28.3623 55.1947 34.4433C52.3732 35.6241 49.0984 36.5214 45.3379 37.147C45.6824 35.9902 45.9465 34.7816 46.126 33.5245L46.2618 33.488C47.3037 33.209 48.0659 32.4069 48.3499 31.4406C48.3618 31.4035 48.3734 31.3665 48.3825 31.329C48.5025 30.8524 48.5077 30.3403 48.372 29.8328L43.4309 11.3933C43.0822 10.0906 41.8959 9.18117 40.5463 9.18117C40.2863 9.18117 40.0268 9.21538 39.7756 9.28282L10.0085 17.2586C9.23991 17.4646 8.5965 17.9586 8.19738 18.6506C7.79827 19.3419 7.69177 20.1459 7.89764 20.914L12.8391 39.3536C13.0028 39.9651 13.3525 40.4879 13.8153 40.8726C13.8381 40.8925 13.8612 40.9121 13.8855 40.9308C13.9103 40.9504 13.9362 40.9687 13.9617 40.9875C13.9704 40.9935 13.9782 41.0002 13.987 41.0062C13.9891 41.0075 13.991 41.0084 13.9931 41.0096C14.4867 41.361 15.0865 41.5659 15.7241 41.5659C15.9838 41.5659 16.2427 41.532 16.4943 41.4646L42.6755 34.4492C42.3759 35.9067 41.9479 37.2452 41.4104 38.468C41.3956 38.5003 41.3807 38.5324 41.368 38.5653C38.0292 46.0442 30.5831 49.1661 23.5315 48.8083C21.5894 48.7102 19.6178 48.3473 17.7051 47.7162C17.6952 47.7129 17.6856 47.7095 17.6756 47.7066C9.97767 45.1549 3.24251 38.238 3.24251 26.5813ZM27.9164 27.8751C27.9109 27.8737 27.9053 27.8721 27.9 27.8706L12.9238 23.8644C12.3459 23.7086 11.8896 23.2515 11.7335 22.6713C11.7208 22.6241 11.7051 22.5782 11.6882 22.5327L11.0967 20.3244L40.3656 12.4822L40.9954 14.8326C41.1646 15.4652 40.962 16.125 40.4661 16.5542L29.5568 27.4481C29.1286 27.8748 28.5006 28.0389 27.9164 27.8751ZM19.9667 29.1013L15.3174 36.0756L12.9464 27.2272L19.9667 29.1013ZM23.2715 29.9869L27.0535 31.0006C27.4866 31.1206 27.9282 31.1793 28.3665 31.1793C29.3277 31.1793 30.2731 30.8977 31.0799 30.3669L43.1845 30.956L18.1558 37.6623L23.2715 29.9869ZM31.0799 30.3669C31.3533 30.1871 31.6107 29.979 31.8474 29.7433L34.7885 26.8025L43.1848 30.9559L31.0799 30.3669ZM40.7259 26.1163C40.6133 26.0605 40.5064 26.0115 40.402 25.9674L37.2093 24.3838C37.2581 24.3386 37.3067 24.2928 37.3539 24.246L42.2154 19.3845L44.524 28.0006L40.7259 26.1163ZM79.5362 41.2424C78.6874 45.1798 75.458 49.2071 70.676 52.2912C65.7162 55.49 59.5651 57.3244 53.8 57.3244H9.97248C12.081 54.6616 14.4495 52.65 17.3692 51.0171C19.2965 51.593 21.3094 51.9427 23.3682 52.0469C23.7917 52.0682 24.2125 52.0789 24.6327 52.0789C29.7304 52.0785 34.5444 50.5092 38.3017 47.6004C40.7134 45.7331 42.6195 43.383 43.9764 40.6341C48.9694 39.9445 53.2453 38.8251 56.8646 37.2558C56.9908 37.2172 57.1124 37.1642 57.2261 37.0962C60.1389 35.7929 62.6177 34.1906 64.6914 32.2749C66.3762 30.7185 68.2147 29.8183 70.0653 29.5963C70.164 29.5953 70.2614 29.5859 70.3563 29.5674C71.908 29.4411 73.4631 29.7909 74.9381 30.6326C78.5477 32.6932 80.4383 37.0559 79.5362 41.2424Z" fill="#A6E34F"/>
</svg>
