<svg width="125" height="102" viewBox="0 0 125 102" fill="none" xmlns="http://www.w3.org/2000/svg">
<path d="M40.76 101.12C33.0133 101.12 26.1067 99.16 20.04 95.24C14.0667 91.2267 9.35333 85.44 5.9 77.88C2.44667 70.32 0.72 61.36 0.72 51C0.72 40.64 2.44667 31.68 5.9 24.12C9.35333 16.56 14.0667 10.82 20.04 6.9C26.1067 2.88667 33.0133 0.879999 40.76 0.879999C48.4133 0.879999 55.2267 2.88667 61.2 6.9C67.2667 10.82 72.0267 16.56 75.48 24.12C78.9333 31.68 80.66 40.64 80.66 51C80.66 61.36 78.9333 70.32 75.48 77.88C72.0267 85.44 67.2667 91.2267 61.2 95.24C55.2267 99.16 48.4133 101.12 40.76 101.12ZM40.76 88.66C48.6 88.66 54.8533 85.44 59.52 79C64.28 72.56 66.66 63.2267 66.66 51C66.66 38.7733 64.28 29.44 59.52 23C54.8533 16.56 48.6 13.34 40.76 13.34C32.8267 13.34 26.48 16.56 21.72 23C17.0533 29.44 14.72 38.7733 14.72 51C14.72 63.2267 17.0533 72.56 21.72 79C26.48 85.44 32.8267 88.66 40.76 88.66ZM124.069 1.99999V100H110.209V14.18H88.0888V1.99999H124.069Z" fill="black" fill-opacity="0.04"/>
</svg>
