<svg width="163" height="102" viewBox="0 0 163 102" fill="none" xmlns="http://www.w3.org/2000/svg">
<path d="M40.76 101.12C33.0133 101.12 26.1067 99.16 20.04 95.24C14.0667 91.2267 9.35333 85.44 5.9 77.88C2.44667 70.32 0.72 61.36 0.72 51C0.72 40.64 2.44667 31.68 5.9 24.12C9.35333 16.56 14.0667 10.82 20.04 6.9C26.1067 2.88667 33.0133 0.879999 40.76 0.879999C48.4133 0.879999 55.2267 2.88667 61.2 6.9C67.2667 10.82 72.0267 16.56 75.48 24.12C78.9333 31.68 80.66 40.64 80.66 51C80.66 61.36 78.9333 70.32 75.48 77.88C72.0267 85.44 67.2667 91.2267 61.2 95.24C55.2267 99.16 48.4133 101.12 40.76 101.12ZM40.76 88.66C48.6 88.66 54.8533 85.44 59.52 79C64.28 72.56 66.66 63.2267 66.66 51C66.66 38.7733 64.28 29.44 59.52 23C54.8533 16.56 48.6 13.34 40.76 13.34C32.8267 13.34 26.48 16.56 21.72 23C17.0533 29.44 14.72 38.7733 14.72 51C14.72 63.2267 17.0533 72.56 21.72 79C26.48 85.44 32.8267 88.66 40.76 88.66ZM162.569 87.82V100H92.1488V90.48L132.049 51.98C136.902 47.3133 140.169 43.3 141.849 39.94C143.529 36.4867 144.369 33.0333 144.369 29.58C144.369 24.4467 142.549 20.48 138.909 17.68C135.362 14.7867 130.229 13.34 123.509 13.34C112.682 13.34 104.329 16.8867 98.4488 23.98L88.9288 15.72C92.7554 11.0533 97.7488 7.41333 103.909 4.8C110.162 2.18667 117.115 0.879999 124.769 0.879999C135.035 0.879999 143.202 3.35333 149.269 8.3C155.335 13.1533 158.369 19.78 158.369 28.18C158.369 33.4067 157.249 38.3533 155.009 43.02C152.769 47.6867 148.522 53.0067 142.269 58.98L112.309 87.82H162.569Z" fill="black" fill-opacity="0.04"/>
</svg>
