<svg width="160" height="102" viewBox="0 0 160 102" fill="none" xmlns="http://www.w3.org/2000/svg">
<path d="M40.76 101.12C33.0133 101.12 26.1067 99.16 20.04 95.24C14.0667 91.2267 9.35333 85.44 5.9 77.88C2.44667 70.32 0.72 61.36 0.72 51C0.72 40.64 2.44667 31.68 5.9 24.12C9.35333 16.56 14.0667 10.82 20.04 6.9C26.1067 2.88667 33.0133 0.879999 40.76 0.879999C48.4133 0.879999 55.2267 2.88667 61.2 6.9C67.2667 10.82 72.0267 16.56 75.48 24.12C78.9333 31.68 80.66 40.64 80.66 51C80.66 61.36 78.9333 70.32 75.48 77.88C72.0267 85.44 67.2667 91.2267 61.2 95.24C55.2267 99.16 48.4133 101.12 40.76 101.12ZM40.76 88.66C48.6 88.66 54.8533 85.44 59.52 79C64.28 72.56 66.66 63.2267 66.66 51C66.66 38.7733 64.28 29.44 59.52 23C54.8533 16.56 48.6 13.34 40.76 13.34C32.8267 13.34 26.48 16.56 21.72 23C17.0533 29.44 14.72 38.7733 14.72 51C14.72 63.2267 17.0533 72.56 21.72 79C26.48 85.44 32.8267 88.66 40.76 88.66ZM130.252 43.16C139.865 44.0933 147.192 47.08 152.232 52.12C157.272 57.0667 159.792 63.4133 159.792 71.16C159.792 76.76 158.392 81.8467 155.592 86.42C152.792 90.9 148.592 94.4933 142.992 97.2C137.485 99.8133 130.718 101.12 122.692 101.12C115.692 101.12 108.972 100.093 102.532 98.04C96.0917 95.8933 90.8184 92.9533 86.7117 89.22L93.1517 78.16C96.5117 81.3333 100.805 83.9 106.032 85.86C111.258 87.7267 116.812 88.66 122.692 88.66C129.972 88.66 135.618 87.12 139.632 84.04C143.738 80.96 145.792 76.7133 145.792 71.3C145.792 65.8867 143.785 61.6867 139.772 58.7C135.758 55.7133 129.692 54.22 121.572 54.22H113.732V44.42L138.372 14.18H91.1917V1.99999H155.872V11.52L130.252 43.16Z" fill="black" fill-opacity="0.04"/>
</svg>
