<svg width="62" height="62" viewBox="0 0 62 62" fill="none" xmlns="http://www.w3.org/2000/svg">
<path d="M53.6972 18.4495L53.6955 18.407C53.6718 17.883 53.656 17.3286 53.6464 16.7117C53.6018 13.7037 51.2106 11.2155 48.2021 11.0473C41.9296 10.6972 37.0772 8.65191 32.9312 4.61076L32.8958 4.57705C31.5435 3.33711 29.5036 3.33711 28.1508 4.57705L28.1154 4.61076C23.9694 8.65191 19.117 10.6972 12.8445 11.0477C9.83642 11.2155 7.44478 13.7037 7.40025 16.7121C7.39109 17.3248 7.37486 17.8792 7.35113 18.407L7.34863 18.5057C7.22668 24.9018 7.07517 32.8622 9.73819 40.0874C11.2025 44.0607 13.4201 47.5146 16.3291 50.3537C19.6423 53.5869 23.9819 56.1538 29.2272 57.9827C29.3978 58.0422 29.5751 58.0905 29.7558 58.1267C30.0105 58.1775 30.2669 58.2029 30.5233 58.2029C30.7797 58.2029 31.0365 58.1775 31.2908 58.1267C31.4715 58.0905 31.65 58.0418 31.8215 57.9819C37.0606 56.1496 41.3956 53.5815 44.7058 50.3487C47.6136 47.5088 49.8312 44.0541 51.2968 40.08C53.9698 32.833 53.8187 24.8577 53.6972 18.4495ZM48.2933 38.9724C45.4846 46.5877 39.7511 51.8176 30.7651 54.9601C30.7331 54.9709 30.699 54.9805 30.6636 54.9875C30.5708 55.0058 30.4763 55.0058 30.3822 54.9871C30.3472 54.98 30.3131 54.9709 30.2815 54.9601C21.286 51.8234 15.5487 46.5964 12.7421 38.9807C10.2876 32.3207 10.4266 25.0134 10.5494 18.5669L10.5503 18.5311C10.5752 17.9771 10.5919 17.3968 10.601 16.7592C10.621 15.4235 11.6849 14.3184 13.0231 14.2439C16.5726 14.0458 19.691 13.3599 22.5563 12.147C25.4179 10.9357 27.9594 9.22838 30.3252 6.92748C30.4455 6.82592 30.6016 6.82551 30.7214 6.92748C33.0877 9.22838 35.6292 10.9357 38.4903 12.147C41.3556 13.3599 44.474 14.0458 48.024 14.2439C49.3622 14.3184 50.426 15.4235 50.4456 16.7596C50.4552 17.4006 50.4718 17.9808 50.4968 18.5311C50.6192 24.9851 50.7549 32.2982 48.2933 38.9724Z" fill="#305C2D"/>
<path d="M30.5225 17.3298C23.0254 17.3298 16.9265 23.4292 16.9265 30.9259C16.9265 38.423 23.0254 44.5224 30.5225 44.5224C38.0192 44.5224 44.1186 38.423 44.1186 30.9259C44.1186 23.4292 38.0192 17.3298 30.5225 17.3298ZM30.5225 41.3208C24.7907 41.3208 20.1277 36.6578 20.1277 30.9259C20.1277 25.194 24.7907 20.531 30.5225 20.531C36.254 20.531 40.917 25.194 40.917 30.9259C40.917 36.6578 36.254 41.3208 30.5225 41.3208Z" fill="#305C2D"/>
<path d="M34.4301 26.7049L28.1151 33.0199L26.401 31.3059C25.7759 30.6807 24.7624 30.6807 24.1372 31.3059C23.5124 31.9311 23.5124 32.9446 24.1372 33.5693L26.9833 36.4155C27.2959 36.7281 27.7055 36.8842 28.1151 36.8842C28.5246 36.8842 28.9342 36.7281 29.2468 36.4155L36.6939 28.9684C37.3187 28.3432 37.3187 27.3297 36.6939 26.7049C36.0688 26.0793 35.0553 26.0793 34.4301 26.7049Z" fill="#A6E34F"/>
</svg>
