<svg width="47" height="56" viewBox="0 0 47 56" fill="none" xmlns="http://www.w3.org/2000/svg">
<path d="M46.6972 15.4495L46.6955 15.407C46.6718 14.883 46.656 14.3286 46.6464 13.7117C46.6018 10.7037 44.2106 8.21545 41.2021 8.0473C34.9296 7.69725 30.0772 5.65191 25.9312 1.61076L25.8958 1.57705C24.5435 0.33711 22.5036 0.33711 21.1508 1.57705L21.1154 1.61076C16.9694 5.65191 12.117 7.69725 5.84449 8.04771C2.83642 8.21545 0.444783 10.7037 0.400247 13.7121C0.39109 14.3248 0.374857 14.8792 0.351132 15.407L0.348635 15.5057C0.22668 21.9018 0.0751738 29.8622 2.73819 37.0874C4.20248 41.0607 6.42014 44.5146 9.32915 47.3537C12.6423 50.5869 16.9819 53.1538 22.2272 54.9827C22.3978 55.0422 22.5751 55.0905 22.7558 55.1267C23.0105 55.1775 23.2669 55.2029 23.5233 55.2029C23.7797 55.2029 24.0365 55.1775 24.2908 55.1267C24.4715 55.0905 24.65 55.0418 24.8215 54.9819C30.0606 53.1496 34.3956 50.5815 37.7058 47.3487C40.6136 44.5088 42.8312 41.0541 44.2968 37.08C46.9698 29.833 46.8187 21.8577 46.6972 15.4495ZM41.2933 35.9724C38.4846 43.5877 32.7511 48.8176 23.7651 51.9601C23.7331 51.9709 23.699 51.9805 23.6636 51.9875C23.5708 52.0058 23.4763 52.0058 23.3822 51.9871C23.3472 51.98 23.3131 51.9709 23.2815 51.9601C14.286 48.8234 8.54872 43.5964 5.7421 35.9807C3.28761 29.3207 3.42663 22.0134 3.54942 15.5669L3.55025 15.5311C3.57523 14.9771 3.59187 14.3968 3.60103 13.7592C3.62101 12.4235 4.68489 11.3184 6.02306 11.2439C9.57264 11.0458 12.691 10.3599 15.5563 9.14697C18.4179 7.93575 20.9594 6.22838 23.3252 3.92748C23.4455 3.82592 23.6016 3.82551 23.7214 3.92748C26.0877 6.22838 28.6292 7.93575 31.4903 9.14697C34.3556 10.3599 37.474 11.0458 41.024 11.2439C42.3622 11.3184 43.426 12.4235 43.4456 13.7596C43.4552 14.4006 43.4718 14.9808 43.4968 15.5311C43.6192 21.9851 43.7549 29.2982 41.2933 35.9724Z" fill="#305C2D"/>
<path d="M23.5225 14.3298C16.0254 14.3298 9.92645 20.4292 9.92645 27.9259C9.92645 35.423 16.0254 41.5224 23.5225 41.5224C31.0192 41.5224 37.1186 35.423 37.1186 27.9259C37.1186 20.4292 31.0192 14.3298 23.5225 14.3298ZM23.5225 38.3208C17.7907 38.3208 13.1277 33.6578 13.1277 27.9259C13.1277 22.194 17.7907 17.531 23.5225 17.531C29.254 17.531 33.917 22.194 33.917 27.9259C33.917 33.6578 29.254 38.3208 23.5225 38.3208Z" fill="#305C2D"/>
<path d="M27.4301 23.7049L21.1151 30.0199L19.401 28.3059C18.7759 27.6807 17.7624 27.6807 17.1372 28.3059C16.5124 28.9311 16.5124 29.9446 17.1372 30.5693L19.9833 33.4155C20.2959 33.7281 20.7055 33.8842 21.1151 33.8842C21.5246 33.8842 21.9342 33.7281 22.2468 33.4155L29.6939 25.9684C30.3187 25.3432 30.3187 24.3297 29.6939 23.7049C29.0688 23.0793 28.0553 23.0793 27.4301 23.7049Z" fill="#A6E34F"/>
</svg>
