<svg width="66" height="66" viewBox="0 0 66 66" fill="none" xmlns="http://www.w3.org/2000/svg">
<g clip-path="url(#clip0)">
<path d="M47.1671 17.139C46.7185 16.3963 45.8292 16.0433 44.9933 16.2765C44.157 16.5096 43.5789 17.271 43.5789 18.1391C43.5789 20.4992 41.6589 22.4187 39.2993 22.4187C36.9392 22.4187 35.0197 20.4992 35.0197 18.1391V1.93362C35.0197 1.15162 34.5484 0.446667 33.8258 0.14706C33.1032 -0.152043 32.2714 0.013622 31.7185 0.56651C31.502 0.783536 26.3452 5.9695 21.1215 13.8056C18.0413 18.4261 15.583 23.0093 13.8156 27.4279C11.5769 33.0252 10.4414 38.3844 10.4414 43.3554C10.4414 55.8417 20.5998 66.0001 33.0856 66.0001C45.5719 66.0001 55.7303 55.8417 55.7303 43.3554C55.7303 35.3632 52.8491 26.5427 47.1671 17.139ZM33.0856 62.1329C22.7323 62.1329 14.3086 53.7092 14.3086 43.3554C14.3086 33.1637 19.7403 22.8618 24.2973 16.0136C26.7672 12.302 29.2562 9.17404 31.152 6.94939V18.1391C31.152 22.6312 34.8067 26.2859 39.2988 26.2859C42.0451 26.2859 44.4787 24.9203 45.9551 22.8321C49.8777 30.2185 51.8631 37.108 51.8631 43.3554C51.8631 53.7092 43.4399 62.1329 33.0856 62.1329Z" fill="#305C2D"/>
<path d="M44.0547 32.635H35.7705C34.7025 32.635 33.8369 33.5006 33.8369 34.5681C33.8364 35.6361 34.7025 36.5022 35.77 36.5022H39.3869L31.1258 44.7628L26.6353 40.2722C25.8804 39.5174 24.6558 39.5174 23.901 40.2722L19.5071 44.6656C18.7518 45.4209 18.7518 46.645 19.5066 47.4003C20.2619 48.1556 21.486 48.1551 22.2414 47.4003L25.2681 44.3741L29.7582 48.8646C30.1208 49.2272 30.6127 49.4311 31.1258 49.4311C31.6384 49.4311 32.1304 49.2272 32.4929 48.8646L42.1211 39.2369V42.8529C42.1211 43.9204 42.9867 44.7865 44.0547 44.7865C45.1228 44.7865 45.9883 43.9204 45.9883 42.8529V34.5686C45.9883 33.5006 45.1228 32.635 44.0547 32.635Z" fill="#A6E34F"/>
</g>
<defs>
<clipPath id="clip0">
<rect width="66" height="66" fill="white"/>
</clipPath>
</defs>
</svg>
