<svg width="37" height="37" viewBox="0 0 37 37" fill="none" xmlns="http://www.w3.org/2000/svg">
<g clip-path="url(#clip0)">
<path d="M23.0664 0.476375C22.9477 0.188107 22.6656 0 22.3541 0C16.5698 0 11.2926 1.82377 8.24014 4.87627C6.90352 6.21289 6.16663 7.99041 6.16663 9.88052C6.16663 11.7706 6.90352 13.5481 8.24014 14.8848C9.57677 16.2214 11.3528 16.9583 13.2444 16.9583C15.1345 16.9583 16.912 16.2214 18.2486 14.8863C19.5699 13.5666 19.9707 11.1293 20.3946 8.55004C20.851 5.76889 21.3258 2.89214 22.8999 1.31654C23.1188 1.09613 23.1851 0.764643 23.0664 0.476375ZM18.8715 8.29877C18.4891 10.6267 18.1284 12.8266 17.1587 13.7948C15.0667 15.8853 11.4222 15.8853 9.33012 13.7948C8.28336 12.7495 7.70827 11.3589 7.70827 9.88052C7.70827 8.40211 8.28328 7.0115 9.33012 5.96625C11.8261 3.46875 16.0271 1.87927 20.774 1.58948C19.6624 3.4965 19.2461 6.01864 18.8715 8.29877Z" fill="#305C2D"/>
<path d="M14.6459 6.16675C13.411 6.16675 6.16675 12.2656 6.16675 19.2709C6.16675 19.6964 6.51211 20.0417 6.93761 20.0417C7.36311 20.0417 7.70846 19.6964 7.70846 19.2709C7.70846 13.2676 13.8258 8.137 14.7909 7.69452C15.147 7.62666 15.4167 7.31375 15.4167 6.93753C15.4167 6.51211 15.0714 6.16675 14.6459 6.16675Z" fill="#305C2D"/>
<path d="M22.3541 29.2917H16.1875C15.762 29.2917 15.4166 29.6371 15.4166 30.0626C15.4166 30.4881 15.762 30.8335 16.1875 30.8335H22.3541C22.7796 30.8335 23.125 30.4881 23.125 30.0626C23.125 29.6371 22.7796 29.2917 22.3541 29.2917Z" fill="#305C2D"/>
<path d="M22.3541 32.375H16.1875C15.762 32.375 15.4166 32.7204 15.4166 33.1459C15.4166 33.5714 15.762 33.9167 16.1875 33.9167H22.3541C22.7796 33.9167 23.125 33.5714 23.125 33.1459C23.125 32.7204 22.7796 32.375 22.3541 32.375Z" fill="#305C2D"/>
<path d="M20.8125 35.4585H17.7291C17.3036 35.4585 16.9583 35.8039 16.9583 36.2294C16.9583 36.6549 17.3036 37.0002 17.7291 37.0002H20.8125C21.238 37.0002 21.5833 36.6549 21.5833 36.2294C21.5833 35.8038 21.238 35.4585 20.8125 35.4585Z" fill="#305C2D"/>
<path d="M25.436 1.80998C25.0799 1.58646 24.602 1.68973 24.3723 2.05048C24.1441 2.40971 24.252 2.88609 24.6113 3.11423C27.5419 4.96582 29.2917 8.12469 29.2917 11.5626C29.2917 14.3653 28.157 16.9661 26.0973 18.8855C25.4837 19.4575 25.0829 20.1558 24.9396 20.9005C24.0223 25.692 22.8259 26.2084 22.3542 26.2084H16.1875C15.7143 26.2084 14.5164 25.6873 13.596 20.8651C13.4604 20.1404 13.0719 19.4652 12.4706 18.9087C12.4182 18.8593 12.3704 18.8054 12.3226 18.7514L12.1669 18.5834C11.8694 18.2813 11.3806 18.2735 11.0769 18.5726C10.7732 18.8702 10.767 19.3589 11.0646 19.6626L11.174 19.7814C11.2558 19.8723 11.3359 19.9617 11.4238 20.0404C11.6704 20.2685 11.9849 20.6462 12.0805 21.1504C12.3919 22.7828 13.3401 27.7501 16.1875 27.7501H22.3542C25.197 27.7501 26.1421 22.8137 26.4534 21.1903C26.5552 20.6569 26.8867 20.2561 27.1472 20.0125C29.4906 17.8326 30.8333 14.7523 30.8333 11.5626C30.8334 7.59282 28.8153 3.94673 25.436 1.80998Z" fill="#305C2D"/>
</g>
<defs>
<clipPath id="clip0">
<rect width="37" height="37" fill="white"/>
</clipPath>
</defs>
</svg>
