<svg width="34" height="34" viewBox="0 0 34 34" fill="none" xmlns="http://www.w3.org/2000/svg">
<g clip-path="url(#clip0)">
<path d="M33.5148 14.7717L33.5096 14.7535C33.4563 14.5332 33.293 14.3523 33.0733 14.2795C32.9917 14.2524 31.044 13.6187 28.263 13.8139C25.7028 13.9934 21.9184 14.9401 18.4277 18.4308C14.937 21.9215 13.9904 25.7058 13.811 28.2658C13.616 31.0469 14.2497 32.9945 14.2768 33.076C14.3428 33.275 14.4989 33.431 14.6978 33.4971C14.7685 33.5206 16.2419 34 18.4454 34C18.7832 34 19.1383 33.9887 19.508 33.9628C22.068 33.7833 25.8524 32.8367 29.3431 29.3461C35.5194 23.1697 33.9018 16.1218 33.5148 14.7717ZM26.6951 15.356C27.22 15.2547 27.7546 15.1832 28.299 15.1428C29.6441 15.0429 30.7835 15.1595 31.5595 15.2917C31.5264 15.3145 31.4946 15.3401 31.4652 15.3695L26.6951 20.1397V15.356ZM25.3669 15.6839V21.4678L20.9158 25.9189V18.0696C20.9158 18.0479 20.9146 18.0266 20.9125 18.0054C22.29 16.939 23.7784 16.1635 25.3669 15.6839ZM15.1358 28.3587C15.3738 24.9636 16.7973 21.9393 19.3668 19.3699C19.44 19.2967 19.5137 19.2246 19.5877 19.1533V27.2175C19.5877 27.227 19.5887 27.2362 19.5891 27.2455L15.285 31.5496C15.1559 30.7878 15.0434 29.6778 15.1358 28.3587ZM19.4719 32.6338C18.1351 32.7331 17.0013 32.6184 16.2256 32.4872L18.3 30.4128C18.3022 30.4128 18.3044 30.4132 18.3066 30.4132H25.9629C23.9967 31.714 21.8238 32.4592 19.4719 32.6338ZM28.4039 28.4069C28.1682 28.6426 27.9285 28.8686 27.6851 29.0851H19.6278L23.482 25.2309H30.8612C30.2508 26.2901 29.4496 27.3613 28.4039 28.4069ZM31.5347 23.9028H24.81L32.4043 16.3086C32.4326 16.2802 32.4572 16.2497 32.4794 16.2179C32.7548 17.8201 32.9288 20.7327 31.5347 23.9028Z" fill="#305C2D"/>
<path d="M15.5723 18.4305C12.0816 14.9398 8.29717 13.9932 5.73702 13.8136C2.95613 13.6186 1.00824 14.2521 0.926691 14.2792C0.707019 14.3521 0.54366 14.533 0.490402 14.7533L0.485223 14.7714C0.0982079 16.1216 -1.51938 23.1695 4.65699 29.3459C6.6165 31.3054 8.86083 32.6675 11.3275 33.3941C11.3901 33.4126 11.4533 33.4213 11.5155 33.4213C11.8024 33.4213 12.067 33.2339 12.1522 32.9448C12.2558 32.593 12.0546 32.2238 11.7029 32.1202C9.45158 31.4569 7.39697 30.2075 5.59617 28.4068C4.02653 26.8372 3.00607 25.21 2.35827 23.6522H8.93952L12.1447 26.8573C12.2744 26.987 12.4443 27.0519 12.6142 27.0519C12.7842 27.0519 12.9542 26.987 13.0838 26.8573C13.3431 26.598 13.3431 26.1775 13.0838 25.9182L12.3517 25.1862V17.4696C13.1471 18.0112 13.9082 18.6448 14.6331 19.3697C14.8924 19.629 15.3129 19.629 15.5723 19.3697C15.8317 19.1103 15.8316 18.6899 15.5723 18.4305ZM5.64411 15.1385C5.93491 15.1589 6.22284 15.1887 6.50812 15.2264V19.3426L2.4968 15.3313C2.48152 15.316 2.46552 15.3018 2.44918 15.2883C3.21113 15.1588 4.32283 15.0458 5.64411 15.1385ZM1.88672 22.3241V22.3241C1.13521 19.7925 1.29093 17.5603 1.5189 16.2276C1.53119 16.2422 1.54387 16.2567 1.55762 16.2705L7.61126 22.3242H1.88672V22.3241ZM11.0236 23.8581L7.83618 20.6707V15.469C8.94583 15.73 10.0094 16.1302 11.0236 16.6677V23.8581Z" fill="#305C2D"/>
<path d="M12.5422 29.8561C11.259 29.4781 10.0407 28.8721 8.92113 28.0552C8.62482 27.839 8.20945 27.9039 7.99324 28.2002C7.77702 28.4964 7.84196 28.9118 8.1382 29.128C9.38132 30.0353 10.7367 30.7088 12.1668 31.1301C12.2294 31.1486 12.2926 31.1574 12.3548 31.1574C12.6417 31.1574 12.9063 30.97 12.9915 30.6808C13.0952 30.3289 12.894 29.9597 12.5422 29.8561Z" fill="#305C2D"/>
<path d="M7.32408 26.6834L7.32176 26.6811C7.06244 26.4219 6.64322 26.4231 6.38377 26.6823C6.12445 26.9416 6.12565 27.3633 6.38497 27.6226C6.51466 27.7523 6.68459 27.8171 6.85452 27.8171C7.02446 27.8171 7.19446 27.7523 7.32408 27.6226C7.5834 27.3633 7.5834 26.9428 7.32408 26.6834Z" fill="#305C2D"/>
<path d="M8.51008 8.43345H4.91439V5.54485H7.39134C7.7581 5.54485 8.0554 5.24755 8.0554 4.88078C8.0554 4.51402 7.7581 4.21672 7.39134 4.21672H4.91439V1.32812H8.51002C8.87678 1.32812 9.17408 1.03082 9.17408 0.664061C9.17408 0.2973 8.87678 0 8.51002 0H4.2504C3.88363 0 3.58633 0.2973 3.58633 0.664061V9.09744C3.58633 9.4642 3.88363 9.7615 4.2504 9.7615H8.51008C8.87684 9.7615 9.17414 9.4642 9.17414 9.09744C9.17414 8.73068 8.87684 8.43345 8.51008 8.43345Z" fill="#305C2D"/>
<path d="M25.4997 0C22.8085 0 20.619 2.18948 20.619 4.88072C20.619 7.57196 22.8085 9.76143 25.4997 9.76143C28.191 9.76143 30.3805 7.57196 30.3805 4.88072C30.3805 2.18948 28.191 0 25.4997 0ZM25.4997 8.43338C23.5408 8.43338 21.9471 6.8397 21.9471 4.88072C21.9471 2.92174 23.5408 1.32806 25.4997 1.32806C27.4587 1.32806 29.0524 2.92174 29.0524 4.88072C29.0524 6.8397 27.4586 8.43338 25.4997 8.43338Z" fill="#305C2D"/>
<path d="M18.0316 7.39298C16.6465 8.77814 14.3925 8.77814 13.0074 7.39298C11.6222 6.00788 11.6222 3.75399 13.0074 2.36882C14.3925 0.983658 16.6464 0.983658 18.0316 2.36882C18.2909 2.62814 18.7114 2.62814 18.9708 2.36882C19.2301 2.10951 19.2301 1.68902 18.9708 1.42964C17.0678 -0.473292 13.9714 -0.473292 12.0684 1.42964C10.1654 3.33264 10.1654 6.42909 12.0684 8.33203C13.0198 9.28356 14.2697 9.75929 15.5196 9.75929C16.7695 9.75929 18.0193 9.28349 18.9708 8.33209C19.2301 8.07278 19.2301 7.65229 18.9708 7.39291C18.7114 7.13366 18.291 7.13366 18.0316 7.39298Z" fill="#305C2D"/>
<path d="M17.0045 11.313C16.6377 11.313 16.3404 11.6103 16.3404 11.977V13.8549C16.3404 14.2217 16.6377 14.519 17.0045 14.519C17.3712 14.519 17.6685 14.2217 17.6685 13.8549V11.977C17.6685 11.6103 17.3712 11.313 17.0045 11.313Z" fill="#305C2D"/>
<path d="M20.8797 13.1423C20.6204 12.8829 20.1999 12.8829 19.9406 13.1423L18.5865 14.4963C18.3272 14.7556 18.3272 15.1761 18.5865 15.4354C18.7162 15.5651 18.8862 15.6299 19.0561 15.6299C19.226 15.6299 19.396 15.565 19.5257 15.4354L20.8797 14.0814C21.1391 13.822 21.1391 13.4015 20.8797 13.1423Z" fill="#305C2D"/>
<path d="M15.4157 14.4766L14.0594 13.1203C13.8 12.8609 13.3796 12.861 13.1203 13.1203C12.8609 13.3796 12.8609 13.8001 13.1203 14.0594L14.4765 15.4157C14.6062 15.5454 14.7762 15.6102 14.9461 15.6102C15.116 15.6102 15.286 15.5454 15.4157 15.4157C15.675 15.1564 15.675 14.7359 15.4157 14.4766Z" fill="#305C2D"/>
</g>
<defs>
<clipPath id="clip0">
<rect width="34" height="34" fill="white"/>
</clipPath>
</defs>
</svg>
