<svg width="35" height="34" viewBox="0 0 35 34" fill="none" xmlns="http://www.w3.org/2000/svg">
<g clip-path="url(#clip0)">
<path d="M17.3833 33.25C16.164 33.25 14.9454 33.0113 13.8169 32.5345L8.42076 30.2557C6.46855 29.4308 4.4044 28.9083 2.28574 28.7026L0.513672 28.5305C0.221917 28.5022 0 28.2638 0 27.9791V22.5793C0 22.4594 0.0401409 22.3428 0.114222 22.247C0.246719 22.0749 3.42274 18.0442 8.27423 19.093C11.0028 19.682 13.1998 20.7843 14.5623 21.6054C15.5515 22.2014 16.711 22.5162 17.9155 22.5162H23.3117C24.2418 22.5162 25.0593 22.9943 25.5165 23.7114L30.164 18.51C31.0651 17.3411 32.5392 16.6252 34.0825 16.6252H34.4297C34.6226 16.6252 34.8021 16.7197 34.9072 16.8763C35.0126 17.0329 35.0292 17.2311 34.9519 17.4023L30.7485 26.6822C29.8295 28.7118 27.9583 30.2449 25.7433 30.7829L25.0038 30.9623L20.7019 32.634C19.6432 33.0452 18.5131 33.25 17.3833 33.25ZM1.14091 27.4776L2.39931 27.6C4.63578 27.8171 6.8148 28.3691 8.87602 29.2396L14.2719 31.5184C16.1693 32.3198 18.3574 32.3512 20.2786 31.6046L24.6158 29.9193C24.6399 29.9101 24.6644 29.9025 24.6896 29.8965L25.4666 29.7076C27.3421 29.252 28.9265 27.9541 29.7042 26.2358L33.5382 17.7716C32.5565 17.912 31.6532 18.4259 31.0514 19.2052L25.9029 24.9693C25.9036 24.9909 25.9039 25.0121 25.9039 25.034C25.9039 26.4222 24.7411 27.5518 23.312 27.5518H15.7832C14.8045 27.5518 13.8372 27.7043 12.9087 28.0048L12.6992 27.4881L12.522 26.9615L12.551 26.9523C13.5931 26.615 14.6814 26.4435 15.7832 26.4435H23.312C24.1119 26.4435 24.7633 25.811 24.7633 25.0337C24.7633 24.2563 24.1122 23.6239 23.312 23.6239H17.9159C16.4985 23.6239 15.1311 23.2514 13.9615 22.5466C12.6744 21.7709 10.5995 20.7301 8.02751 20.1743C4.35349 19.3827 1.70974 22.1218 1.14124 22.7752V27.4776H1.14091Z" fill="#305C2D"/>
<path d="M22.4625 16.4999C21.5853 16.4999 20.6017 16.2368 19.5189 15.7109C19.3877 15.6468 19.2865 15.5359 19.2369 15.4018C19.1929 15.2816 18.1737 12.4338 19.7933 10.3278C20.9705 8.79688 23.1838 8.10736 26.3755 8.28014C26.6666 8.29567 26.8986 8.52234 26.913 8.80576C26.9244 9.02578 27.1597 14.2189 24.4337 15.948C23.8541 16.3161 23.1955 16.4999 22.4625 16.4999ZM20.2463 14.8216C21.7446 15.5042 22.9423 15.5711 23.8104 15.0204C25.4268 13.9948 25.7763 10.9504 25.7848 9.36594C23.284 9.30666 21.5814 9.85416 20.7071 10.9907C19.6667 12.3441 20.0711 14.2056 20.2463 14.8216Z" fill="#305C2D"/>
<path d="M13.7399 9.24065C12.7286 9.24065 11.5619 9.03015 10.5437 8.30575C8.81662 7.07633 8.02295 4.73575 8.18416 1.3493C8.19787 1.0662 8.42892 0.838572 8.72035 0.82177C8.96707 0.808138 14.8067 0.50538 16.7717 3.37064C17.6868 4.70436 17.6117 6.45116 16.5494 8.56349C16.4848 8.69189 16.3719 8.79112 16.2339 8.84025C16.1572 8.86784 15.0864 9.24065 13.7399 9.24065ZM16.0371 8.32033H16.0426H16.0371ZM9.3068 1.91201C9.25752 4.62447 9.89945 6.47335 11.2176 7.41174C12.7958 8.53496 14.9507 8.05752 15.6282 7.86572C16.4032 6.23178 16.4688 4.92723 15.8227 3.98503C14.6217 2.23379 11.0998 1.89141 9.3068 1.91201Z" fill="#305C2D"/>
<path d="M18.1942 23.4292C18.1763 23.4292 18.1583 23.4283 18.1401 23.4267C17.8362 23.3988 17.6088 23.1436 17.6241 22.8472C17.6577 22.1954 17.7152 21.5772 17.7932 20.9913C18.0304 17.0703 17.908 7.93941 11.9652 5.41337C11.6767 5.29068 11.5449 4.96414 11.6712 4.68358C11.7972 4.40364 12.1343 4.27588 12.4224 4.39826C15.9245 5.88668 18.1277 9.59238 18.7924 15.1146C18.8522 15.6095 18.8969 16.0974 18.9302 16.5726C20.4953 12.7306 22.8897 11.3731 23.0324 11.2954C23.3065 11.1448 23.6544 11.2406 23.8091 11.5066C23.9628 11.7729 23.8662 12.1099 23.593 12.2601C23.5326 12.2944 19.8609 14.4349 18.9393 21.036C18.8691 22.1652 18.768 22.8852 18.7585 22.9511C18.719 23.2276 18.4759 23.4292 18.1942 23.4292Z" fill="#305C2D"/>
</g>
<defs>
<clipPath id="clip0">
<rect width="35" height="34" fill="white"/>
</clipPath>
</defs>
</svg>
