<svg width="316" height="63" viewBox="0 0 316 63" fill="none" xmlns="http://www.w3.org/2000/svg">
<path d="M241.496 30.8421C259.159 45.111 293.018 61.5749 316 62.5142H158V0.0140802C177.911 -0.203933 205.5 1.76318 241.496 30.8421Z" fill="white"/>
<path d="M74.5041 30.8421C56.528 44.5226 22.9818 61.5749 0 62.5142H158V0.0140802C137.447 0.0140549 104.5 8.01404 74.5041 30.8421Z" fill="white"/>
<path d="M115.11 52.614C114.57 52.614 114.047 52.5374 113.54 52.384C113.04 52.2307 112.643 52.0274 112.35 51.774L112.8 50.764C113.087 50.9907 113.437 51.1774 113.85 51.324C114.27 51.464 114.69 51.534 115.11 51.534C115.63 51.534 116.017 51.4507 116.27 51.284C116.53 51.1174 116.66 50.8974 116.66 50.624C116.66 50.424 116.587 50.2607 116.44 50.134C116.3 50.0007 116.12 49.8974 115.9 49.824C115.68 49.7507 115.38 49.6674 115 49.574C114.467 49.4474 114.033 49.3207 113.7 49.194C113.373 49.0674 113.09 48.8707 112.85 48.604C112.617 48.3307 112.5 47.964 112.5 47.504C112.5 47.1174 112.603 46.7674 112.81 46.454C113.023 46.134 113.34 45.8807 113.76 45.694C114.187 45.5074 114.707 45.414 115.32 45.414C115.747 45.414 116.167 45.4674 116.58 45.574C116.993 45.6807 117.35 45.834 117.65 46.034L117.24 47.044C116.933 46.864 116.613 46.7274 116.28 46.634C115.947 46.5407 115.623 46.494 115.31 46.494C114.797 46.494 114.413 46.5807 114.16 46.754C113.913 46.9274 113.79 47.1574 113.79 47.444C113.79 47.644 113.86 47.8074 114 47.934C114.147 48.0607 114.33 48.1607 114.55 48.234C114.77 48.3074 115.07 48.3907 115.45 48.484C115.97 48.604 116.397 48.7307 116.73 48.864C117.063 48.9907 117.347 49.1874 117.58 49.454C117.82 49.7207 117.94 50.0807 117.94 50.534C117.94 50.9207 117.833 51.2707 117.62 51.584C117.413 51.8974 117.097 52.1474 116.67 52.334C116.243 52.5207 115.723 52.614 115.11 52.614ZM123.469 52.614C122.762 52.614 122.122 52.4607 121.549 52.154C120.982 51.8407 120.536 51.4107 120.209 50.864C119.889 50.3174 119.729 49.7007 119.729 49.014C119.729 48.3274 119.892 47.7107 120.219 47.164C120.546 46.6174 120.992 46.1907 121.559 45.884C122.132 45.5707 122.772 45.414 123.479 45.414C124.052 45.414 124.576 45.514 125.049 45.714C125.522 45.914 125.922 46.204 126.249 46.584L125.409 47.374C124.902 46.8274 124.279 46.554 123.539 46.554C123.059 46.554 122.629 46.6607 122.249 46.874C121.869 47.0807 121.572 47.3707 121.359 47.744C121.146 48.1174 121.039 48.5407 121.039 49.014C121.039 49.4874 121.146 49.9107 121.359 50.284C121.572 50.6574 121.869 50.9507 122.249 51.164C122.629 51.3707 123.059 51.474 123.539 51.474C124.279 51.474 124.902 51.1974 125.409 50.644L126.249 51.444C125.922 51.824 125.519 52.114 125.039 52.314C124.566 52.514 124.042 52.614 123.469 52.614ZM133.075 52.514L131.645 50.464C131.585 50.4707 131.495 50.474 131.375 50.474H129.795V52.514H128.495V45.514H131.375C131.981 45.514 132.508 45.614 132.955 45.814C133.408 46.014 133.755 46.3007 133.995 46.674C134.235 47.0474 134.355 47.4907 134.355 48.004C134.355 48.5307 134.225 48.984 133.965 49.364C133.711 49.744 133.345 50.0274 132.865 50.214L134.475 52.514H133.075ZM133.045 48.004C133.045 47.5574 132.898 47.214 132.605 46.974C132.311 46.734 131.881 46.614 131.315 46.614H129.795V49.404H131.315C131.881 49.404 132.311 49.284 132.605 49.044C132.898 48.7974 133.045 48.4507 133.045 48.004ZM140.079 52.614C139.366 52.614 138.722 52.4607 138.149 52.154C137.576 51.8407 137.126 51.4107 136.799 50.864C136.472 50.3107 136.309 49.694 136.309 49.014C136.309 48.334 136.472 47.7207 136.799 47.174C137.126 46.6207 137.576 46.1907 138.149 45.884C138.722 45.5707 139.366 45.414 140.079 45.414C140.792 45.414 141.436 45.5707 142.009 45.884C142.582 46.1907 143.032 46.6174 143.359 47.164C143.686 47.7107 143.849 48.3274 143.849 49.014C143.849 49.7007 143.686 50.3174 143.359 50.864C143.032 51.4107 142.582 51.8407 142.009 52.154C141.436 52.4607 140.792 52.614 140.079 52.614ZM140.079 51.474C140.546 51.474 140.966 51.3707 141.339 51.164C141.712 50.9507 142.006 50.6574 142.219 50.284C142.432 49.904 142.539 49.4807 142.539 49.014C142.539 48.5474 142.432 48.1274 142.219 47.754C142.006 47.374 141.712 47.0807 141.339 46.874C140.966 46.6607 140.546 46.554 140.079 46.554C139.612 46.554 139.192 46.6607 138.819 46.874C138.446 47.0807 138.152 47.374 137.939 47.754C137.726 48.1274 137.619 48.5474 137.619 49.014C137.619 49.4807 137.726 49.904 137.939 50.284C138.152 50.6574 138.446 50.9507 138.819 51.164C139.192 51.3707 139.612 51.474 140.079 51.474ZM146.227 45.514H147.527V51.414H151.187V52.514H146.227V45.514ZM153.213 45.514H154.513V51.414H158.173V52.514H153.213V45.514ZM163.963 45.514H167.023C167.77 45.514 168.433 45.6607 169.013 45.954C169.593 46.2407 170.043 46.6507 170.363 47.184C170.683 47.7107 170.843 48.3207 170.843 49.014C170.843 49.7074 170.683 50.3207 170.363 50.854C170.043 51.3807 169.593 51.7907 169.013 52.084C168.433 52.3707 167.77 52.514 167.023 52.514H163.963V45.514ZM166.963 51.414C167.477 51.414 167.927 51.3174 168.313 51.124C168.707 50.924 169.007 50.644 169.213 50.284C169.427 49.9174 169.533 49.494 169.533 49.014C169.533 48.534 169.427 48.114 169.213 47.754C169.007 47.3874 168.707 47.1074 168.313 46.914C167.927 46.714 167.477 46.614 166.963 46.614H165.263V51.414H166.963ZM176.495 52.614C175.782 52.614 175.138 52.4607 174.565 52.154C173.992 51.8407 173.542 51.4107 173.215 50.864C172.888 50.3107 172.725 49.694 172.725 49.014C172.725 48.334 172.888 47.7207 173.215 47.174C173.542 46.6207 173.992 46.1907 174.565 45.884C175.138 45.5707 175.782 45.414 176.495 45.414C177.208 45.414 177.852 45.5707 178.425 45.884C178.998 46.1907 179.448 46.6174 179.775 47.164C180.102 47.7107 180.265 48.3274 180.265 49.014C180.265 49.7007 180.102 50.3174 179.775 50.864C179.448 51.4107 178.998 51.8407 178.425 52.154C177.852 52.4607 177.208 52.614 176.495 52.614ZM176.495 51.474C176.962 51.474 177.382 51.3707 177.755 51.164C178.128 50.9507 178.422 50.6574 178.635 50.284C178.848 49.904 178.955 49.4807 178.955 49.014C178.955 48.5474 178.848 48.1274 178.635 47.754C178.422 47.374 178.128 47.0807 177.755 46.874C177.382 46.6607 176.962 46.554 176.495 46.554C176.028 46.554 175.608 46.6607 175.235 46.874C174.862 47.0807 174.568 47.374 174.355 47.754C174.142 48.1274 174.035 48.5474 174.035 49.014C174.035 49.4807 174.142 49.904 174.355 50.284C174.568 50.6574 174.862 50.9507 175.235 51.164C175.608 51.3707 176.028 51.474 176.495 51.474ZM192.649 45.514L190.329 52.514H188.949L187.219 47.334L185.459 52.514H184.069L181.749 45.514H183.099L184.839 50.834L186.649 45.514H187.849L189.619 50.864L191.409 45.514H192.649ZM200.928 45.514V52.514H199.858L195.998 47.774V52.514H194.708V45.514H195.778L199.638 50.254V45.514H200.928Z" fill="#305C2D"/>
<g clip-path="url(#clip0)">
<path d="M163.661 28.6552C163.957 28.3691 163.957 27.893 163.661 27.5969C163.375 27.3108 162.899 27.3108 162.613 27.5969L157.247 32.9632L157.247 15.2549C157.246 14.8421 156.918 14.514 156.505 14.514C156.093 14.514 155.754 14.8421 155.754 15.2549L155.754 32.9632L150.397 27.5969C150.101 27.3108 149.624 27.3108 149.339 27.5969C149.043 27.893 149.043 28.3698 149.339 28.6552L155.976 35.292C156.262 35.5881 156.738 35.5881 157.024 35.292L163.661 28.6552Z" fill="#305C2D"/>
</g>
<defs>
<clipPath id="clip0">
<rect x="167" y="14.514" width="21" height="21" transform="rotate(90 167 14.514)" fill="white"/>
</clipPath>
</defs>
</svg>
